<!DOCTYPE svg PUBLIC "-//W3C//DTD SVG 20010904//EN" "http://www.w3.org/TR/2001/REC-SVG-20010904/DTD/svg10.dtd">
<svg version="1.0" xmlns="http://www.w3.org/2000/svg" width="512px" height="512px" viewBox="0 0 5120 5120" preserveAspectRatio="xMidYMid meet">
<g id="layer101" fill="#ffffff" stroke="none">
 <path d="M2362 5105 c-99 -22 -205 -78 -271 -144 -70 -70 -102 -132 -132 -256 l-23 -95 -50 0 c-152 0 -315 -99 -388 -235 -15 -28 -117 -358 -229 -740 l-203 -690 0 -111 c-1 -108 0 -111 37 -188 45 -91 121 -170 195 -205 l50 -23 -35 -127 -34 -126 4 -540 c4 -577 4 -579 59 -745 124 -378 430 -686 812 -816 358 -122 781 -69 1099 139 252 165 433 400 526 684 57 174 61 228 61 777 l0 501 -35 124 c-19 69 -33 126 -32 126 1 1 26 15 56 31 102 54 186 162 217 278 15 57 18 163 5 216 -36 148 -408 1394 -428 1433 -68 135 -225 229 -397 240 l-40 2 -23 93 c-12 51 -37 120 -54 152 -61 115 -181 201 -337 241 -91 23 -311 25 -410 4z m374 -179 c115 -30 198 -97 229 -181 7 -22 118 -429 245 -905 127 -476 262 -980 300 -1120 38 -140 80 -302 95 -360 14 -58 28 -113 31 -122 5 -17 -51 -18 -1075 -18 -595 0 -1081 1 -1081 3 0 7 131 501 208 787 132 490 250 924 368 1364 111 414 120 437 195 492 42 31 128 63 199 74 70 11 219 4 286 -14z m-861 -543 c-15 -53 -340 -1276 -405 -1528 -60 -232 -70 -265 -81 -265 -23 0 -108 94 -129 143 -42 95 -41 101 174 837 108 371 203 689 210 706 36 79 139 154 213 154 l32 0 -14 -47z m1470 23 c53 -24 107 -78 131 -130 7 -17 102 -336 209 -710 150 -523 195 -692 195 -735 0 -87 -49 -177 -124 -226 -14 -10 -28 -16 -30 -14 -2 2 -114 417 -248 922 l-245 917 31 0 c17 0 54 -11 81 -24z m320 -2806 c0 -393 -2 -455 -18 -530 -34 -155 -87 -285 -169 -410 -54 -83 -214 -244 -298 -298 -326 -214 -719 -249 -1068 -94 -126 56 -224 124 -333 232 -130 130 -213 262 -269 430 -49 147 -52 181 -57 648 -3 244 -2 449 0 457 5 11 185 13 1109 12 l1103 -2 0 -445z"/>
 <path d="M2817 3240 c-54 -29 -332 -447 -342 -513 -15 -98 35 -218 115 -276 71 -52 119 -65 207 -56 93 8 116 8 210 -1 126 -11 232 47 291 160 22 43 27 64 27 132 l0 82 -147 220 c-84 125 -162 230 -180 243 -45 32 -130 36 -181 9z m212 -356 c133 -199 140 -219 95 -273 -36 -43 -92 -57 -152 -37 -58 20 -91 20 -152 0 -60 -20 -107 -8 -145 37 -46 56 -38 79 98 283 67 102 125 181 128 178 3 -4 61 -88 128 -188z"/>
 <path d="M1964 1871 c-133 -32 -254 -152 -311 -309 -34 -91 -42 -241 -19 -332 47 -186 170 -325 321 -365 90 -23 1135 -23 1216 1 193 56 329 264 329 503 0 232 -138 439 -329 495 -47 14 -130 16 -615 15 -309 -1 -575 -4 -592 -8z m1191 -190 c78 -35 146 -142 165 -258 24 -148 -48 -316 -161 -374 -36 -18 -65 -19 -596 -19 -627 0 -604 -2 -672 75 -128 146 -125 400 6 527 74 72 37 68 658 68 520 0 563 -2 600 -19z"/>
 <path d="M1988 1509 c-29 -28 -30 -34 -25 -85 11 -103 85 -191 186 -220 148 -44 299 55 326 213 12 76 -39 133 -107 118 -36 -8 -68 -49 -68 -87 0 -40 -40 -78 -83 -78 -38 0 -77 34 -77 68 0 53 -48 102 -100 102 -12 0 -35 -14 -52 -31z"/>
 <path d="M2693 1530 c-84 -35 -51 -206 54 -286 156 -118 390 -16 410 179 5 52 4 58 -25 86 -34 34 -59 38 -101 16 -27 -14 -51 -58 -51 -95 0 -27 -43 -60 -79 -60 -42 0 -76 35 -84 86 -4 22 -15 48 -25 57 -23 21 -70 29 -99 17z"/>
 </g>

</svg>